<svg width="1920" height="1080" viewBox="0 0 1920 1080" xmlns="http://www.w3.org/2000/svg"><rect width="1920" height="1080" fill="#c9c7ef"/><path d="M 0,1080 C 0,1080 0,270 0,270 C 73.85787923416791,307.2720913107511 147.71575846833582,344.5441826215022 234,316 C 320.2842415316642,287.4558173784978 418.9948453608247,193.09536082474227 519,176 C 619.0051546391753,158.90463917525773 720.3048600883652,219.0743740795287 809,263 C 897.6951399116348,306.9256259204713 973.7857142857142,334.60714285714283 1074,305 C 1174.2142857142858,275.39285714285717 1298.5522827687778,188.4970544918999 1382,181 C 1465.4477172312222,173.5029455081001 1508.005154639175,245.40463917525773 1617,281 C 1725.994845360825,316.5953608247423 1901.4270986745214,315.88438880706923 1963,308 C 2024.5729013254786,300.11561119293077 1972.2864506627393,285.0578055964654 1920,270 C 1920,270 1920,1080 1920,1080 Z" fill="#444484" opacity="0.15"/><path d="M 0,1080 C 0,1080 0,540 0,540 C 104.2363770250368,511.7356406480118 208.4727540500736,483.4712812960236 291,489 C 373.5272459499264,494.5287187039764 434.34536082474233,533.8505154639175 525,533 C 615.6546391752577,532.1494845360825 736.1458026509573,491.12665684830625 828,472 C 919.8541973490427,452.87334315169375 983.0714285714284,455.6428571428572 1070,447 C 1156.9285714285716,438.3571428571428 1267.5684830633284,418.301914580265 1380,461 C 1492.4315169366716,503.698085419735 1606.6546391752577,609.1494845360825 1695,604 C 1783.3453608247423,598.8505154639175 1845.8129602356405,483.100147275405 1879,454 C 1912.1870397643595,424.899852724595 1916.0935198821799,482.4499263622975 1920,540 C 1920,540 1920,1080 1920,1080 Z" fill="#444484" opacity="0.3"/><path d="M 0,1080 C 0,1080 0,810 0,810 C 100.91016200294553,802.25147275405 201.82032400589105,794.5029455081001 289,812 C 376.17967599410895,829.4970544918999 449.62886597938143,872.2396907216496 525,863 C 600.3711340206186,853.7603092783504 677.6642120765832,792.5382916053019 772,773 C 866.3357879234168,753.4617083946981 977.7142857142858,775.6071428571429 1071,784 C 1164.2857142857142,792.3928571428571 1239.478645066274,787.0331369661267 1338,808 C 1436.521354933726,828.9668630338733 1558.3711340206185,876.2603092783504 1682,893 C 1805.6288659793815,909.7396907216496 1931.036818851252,895.9256259204714 1971,877 C 2010.963181148748,858.0743740795286 1965.481590574374,834.0371870397644 1920,810 C 1920,810 1920,1080 1920,1080 Z" fill="#444484" opacity="0.44999999999999996"/></svg>